<svg width="197" height="106" fill="none" xmlns="http://www.w3.org/2000/svg"><path d="M128.808 56.242h-28.684v6.482h26.519c-1.624 10.804-7.036 32.412-26.519 36.734 0 0 28.142 13.505 63.862 0 0 0 31.39-11.885 33.014-43.216h-68.192Z" fill="#B1B1B2"/><path d="M96.876 6.002s-28.142-13.505-63.862 0c0 0-31.39 11.885-33.014 43.216h69.816c0 .54 1.082-36.733 27.06-43.216Z" fill="#727273"/><path d="M96.876 99.998s-28.142 13.505-63.862 0c0 0-31.39-11.885-33.014-43.216h69.816c0-.54 1.082 36.733 27.06 43.216ZM163.986 6.003c-36.261-13.505-63.862 0-63.862 0 16.236 3.781 22.73 19.447 24.895 30.791h69.816c-7.577-22.148-30.849-30.791-30.849-30.791Z" fill="#fff"/></svg>