<svg width="197" height="106" viewBox="0 0 197 106" fill="none" xmlns="http://www.w3.org/2000/svg">
<path d="M128.808 56.2413H100.124V62.7238H126.643C125.019 73.5279 119.607 95.136 100.124 99.4577C100.124 99.4577 128.266 112.963 163.986 99.4577C163.986 99.4577 195.376 87.5732 197 56.2413C197 56.2413 128.808 56.2413 128.808 56.2413Z" fill="#FFCD00"/>
<path d="M96.8764 6.00306C96.8764 6.00306 68.7335 -7.50204 33.0137 6.00306C33.0137 6.00306 1.62363 17.8876 0 49.2194H69.8159C69.8159 49.7596 70.8983 12.4855 96.8764 6.00306Z" fill="#009BD5"/>
<path d="M96.8764 99.9977C96.8764 99.9977 68.7335 113.503 33.0137 99.9977C33.0137 99.9977 1.62363 88.1132 0 56.7814H69.8159C69.8159 56.2412 70.8983 93.5153 96.8764 99.9977Z" fill="white"/>
<path d="M163.986 6.00227C127.725 -7.50283 100.124 6.00227 100.124 6.00227C116.36 9.7837 122.854 25.4496 125.019 36.7939H194.835C187.258 14.6455 163.986 6.00227 163.986 6.00227Z" fill="white"/>
</svg>
